<svg width="1375" height="128" viewBox="0 0 1375 128" fill="none" xmlns="http://www.w3.org/2000/svg">
<g clip-path="url(#clip0_0_1)">
<g clip-path="url(#clip1_0_1)">
<path d="M687.5 14C1042.82 14 1322 35.78 1322 63.5C1322 91.22 1042.82 113 687.5 113C332.18 113 53 91.22 53 63.5C53 35.78 332.18 14 687.5 14Z" fill="white" fill-opacity="0.01"/>
<path d="M687.5 14.5C1042.54 14.5 1321.5 36.06 1321.5 63.5C1321.5 90.94 1042.54 112.5 687.5 112.5C332.46 112.5 53.5 90.94 53.5 63.5C53.5 36.06 332.46 14.5 687.5 14.5Z" stroke="#00FFFF"/>
<g clip-path="url(#clip2_0_1)">
<path d="M687.5 33C1001.94 33 1249 46.42 1249 63.5C1249 80.58 1001.94 94 687.5 94C373.06 94 126 80.58 126 63.5C126 46.42 373.06 33 687.5 33Z" fill="white" fill-opacity="0.01"/>
<path d="M687.5 33.5C1001.66 33.5 1248.5 46.7 1248.5 63.5C1248.5 80.3 1001.66 93.5 687.5 93.5C373.34 93.5 126.5 80.3 126.5 63.5C126.5 46.7 373.34 33.5 687.5 33.5Z" stroke="#00FFFF"/>
</g>
</g>
<path d="M687.5 0C1072.5 0 1375 28.16 1375 64C1375 99.84 1072.5 128 687.5 128C302.5 128 0 99.84 0 64C0 28.16 302.5 0 687.5 0Z" fill="white" fill-opacity="0.01"/>
<path d="M687.5 0.5C1072.22 0.5 1374.5 28.44 1374.5 64C1374.5 99.56 1072.22 127.5 687.5 127.5C302.78 127.5 0.5 99.56 0.5 64C0.5 28.44 302.78 0.5 687.5 0.5Z" stroke="#00FFFF"/>
<path d="M692.156 81.2505C686.833 76.5276 687.341 74.4283 680.498 74.4283C673.654 74.4283 669.346 76.0024 671.12 85.9732C672.894 95.9427 677.963 91.483 677.456 98.8294C676.949 106.176 678.724 108.013 679.737 109.849C680.751 111.685 684.299 116.933 685.567 109.587C686.834 102.24 689.114 98.0425 691.903 94.3686C694.691 90.696 697.478 85.9732 692.156 81.2505ZM673.401 63.9332C673.654 60.2598 679.484 56.3241 683.539 54.4877C687.594 52.6507 691.142 52.1263 690.635 48.9777C690.129 45.8293 689.114 43.4678 683.032 43.4678C676.949 43.4678 679.484 52.1262 674.415 46.8787C669.346 41.631 675.429 43.2054 677.963 41.8936C680.497 40.5815 683.032 35.8587 678.724 35.5965C674.415 35.334 675.175 37.6955 671.627 36.3837C668.079 35.0716 666.558 41.1065 664.277 40.0567C662.756 39.5321 658.954 36.3837 656.166 33.4974C650.843 37.9579 646.788 43.73 644 50.552C644.76 59.4728 649.323 63.9333 649.323 63.9333C649.323 63.9333 651.604 69.7055 666.05 76.7898C666.05 76.7898 668.839 77.0517 665.544 73.6412C662.248 70.2306 658.954 66.2947 662.756 64.1957C666.558 62.0965 667.825 62.0965 668.839 66.2949C669.852 70.4926 673.148 67.8689 673.401 63.9332ZM731.188 65.2449C731.188 64.7203 731.188 64.4577 730.934 63.9332C730.934 62.8834 730.681 61.834 730.428 61.0469C730.428 60.522 730.174 59.9976 730.174 59.4726C729.921 58.4234 729.668 57.6361 729.414 56.5864C729.414 56.0618 729.161 55.7992 729.161 55.2747C728.653 53.9627 728.4 52.6505 727.893 51.6012C727.64 51.0763 727.387 50.5518 727.133 50.027C726.88 49.2399 726.372 48.7151 726.119 47.928C725.866 47.4034 725.359 46.6163 725.106 46.0913C724.851 45.5665 724.598 45.042 724.091 44.5171C723.585 43.9923 723.331 43.2052 722.825 42.6806C722.57 42.418 722.317 41.8935 722.064 41.6308C720.289 39.2695 718.262 36.908 715.981 34.8092C715.727 34.8092 715.727 34.5467 715.474 34.5467C714.714 33.7595 713.953 33.235 712.94 32.4478H712.686C709.138 29.5617 705.082 27.2002 700.774 25.6259C699.506 27.7249 698.239 30.3485 696.718 31.3981C694.437 32.71 694.691 37.9576 698.999 37.4329C698.999 37.4329 697.733 38.7449 698.999 43.4678C700.267 48.1907 702.295 49.24 708.631 46.6163C711.419 45.5665 713.446 46.0913 713.193 48.9776C712.432 55.012 708.123 54.7498 711.419 64.4576C713.446 70.4925 718.515 72.5918 720.543 77.3146C721.557 79.9381 725.612 82.0375 728.907 83.8736C729.16 82.5613 729.667 81.2502 729.921 80.1999C729.921 79.6759 730.174 79.1509 730.174 78.6257C730.428 77.5766 730.428 76.7897 730.681 75.7404C730.681 75.2152 730.681 74.9533 730.934 74.4281C730.934 73.1156 731.188 71.5414 731.188 70.2303C731.441 68.131 731.441 66.8191 731.188 65.2449ZM719.276 85.7101C720.289 82.5616 715.727 79.6762 713.953 80.7252C712.18 81.7743 712.18 84.3989 713.7 85.7101C715.221 87.0224 718.262 88.8585 719.276 85.7101Z" fill="#3399FF"/>
<path d="M707.615 118.672C701.171 121.485 694.326 122.912 687.27 122.912C680.214 122.912 673.368 121.485 666.924 118.672C660.7 115.954 655.11 112.064 650.31 107.108C645.509 102.153 641.741 96.3829 639.108 89.9578C636.382 83.3056 635 76.2395 635 68.9559C635 61.6722 636.382 54.606 639.108 47.9539C641.741 41.5288 645.509 35.7586 650.31 30.8034C655.11 25.8482 660.7 21.9579 666.924 19.2402C673.369 16.4265 680.214 15 687.27 15C694.326 15 701.171 16.4267 707.615 19.2402C713.84 21.9579 719.43 25.8482 724.23 30.8034C729.03 35.7586 732.799 41.5288 735.431 47.9539C738.157 54.6061 739.539 61.6722 739.539 68.9559C739.539 76.2397 738.157 83.3057 735.431 89.9578C732.799 96.3829 729.03 102.153 724.23 107.108C719.429 112.064 713.84 115.954 707.615 118.672ZM738.828 68.9558C738.828 39.6093 715.699 15.7341 687.27 15.7341C658.841 15.7341 635.711 39.6092 635.711 68.9558C635.711 98.3023 658.841 122.178 687.27 122.178C715.699 122.178 738.828 98.3024 738.828 68.9558Z" fill="#3399FF"/>
</g>
<defs>
<clipPath id="clip0_0_1">
<rect width="1375" height="128" fill="white"/>
</clipPath>
<clipPath id="clip1_0_1">
<rect width="1269" height="99" fill="white" transform="translate(53 14)"/>
</clipPath>
<clipPath id="clip2_0_1">
<rect width="1123" height="61" fill="white" transform="translate(126 33)"/>
</clipPath>
</defs>
</svg>
