<?xml version="1.0" standalone="no"?><!DOCTYPE svg PUBLIC "-//W3C//DTD SVG 1.1//EN" "http://www.w3.org/Graphics/SVG/1.1/DTD/svg11.dtd"><svg t="1744852642661" class="icon" viewBox="0 0 1053 1024" version="1.1" xmlns="http://www.w3.org/2000/svg" p-id="5353" xmlns:xlink="http://www.w3.org/1999/xlink" width="205.6640625" height="200"><path d="M1006.008803 47.274873A161.363579 161.363579 0 0 0 891.88295 0H161.413108A161.400726 161.400726 0 0 0 0 161.42549v507.121451a161.400726 161.400726 0 0 0 161.413108 161.413107h730.544135a161.400726 161.400726 0 0 0 161.338815-161.413107V161.42549a161.388343 161.388343 0 0 0-47.287255-114.150617z m-10.760048 634.198984a84.817412 84.817412 0 0 1-84.805031 84.656445H142.864716a84.80503 84.80503 0 0 1-84.80503-84.656445V148.535719a84.953615 84.953615 0 0 1 84.80503-84.928851h767.579008a84.965998 84.965998 0 0 1 84.805031 84.80503z" fill="#33FFFF" p-id="5354"></path><path d="M779.156276 325.401693c-11.342007-3.714631-45.96237-17.879758-56.450012-36.031923-10.500024-18.449335-5.398597-55.335623-2.847884-66.962418 2.847884-11.911584-2.265925-25.816687-12.196373-33.196421l-85.436517-49.367449-1.696349-0.854365c-11.069601-4.816638-25.816687-2.550713-34.905151 5.955792-8.506505 7.949311-38.013059 30.95526-59.297896 30.95526-20.987666 0-50.49422-22.981185-59.297896-30.95526-8.791294-8.506505-23.525998-11.057219-34.892769-5.955792l-84.829794 49.082661-1.708731 1.139153c-9.905683 7.429262-15.031874 21.284837-12.196372 33.196421 2.550713 11.626796 7.664522 48.513083-2.835502 66.962418s-45.108005 32.626844-56.462394 36.031923-21.049577 14.462297-22.981185 26.101475c-0.284788 1.41156-5.101427 30.076131-5.101427 51.348585s4.816638 50.221814 5.101427 51.348586c1.981137 11.639178 11.639178 22.708779 22.981185 26.101475 11.354389 3.714631 45.96237 17.879758 56.462394 36.031922 10.500024 18.449335 5.386215 55.335623 2.835502 66.962419-2.835502 11.911584 2.265925 25.816687 12.196372 33.196421l85.436518 49.367448 1.70873 0.854365c11.057219 4.816638 25.816687 2.550713 34.892769-5.955792 8.518888-7.949311 38.025441-30.95526 59.297896-30.95526 21.049577 0 50.506602 22.981185 59.297896 30.95526a33.889819 33.889819 0 0 0 22.411609 8.506506 32.007739 32.007739 0 0 0 11.923966-2.265925l85.436517-49.367449 1.696349-1.139153c9.905683-7.429262 15.044256-21.284837 12.196372-33.196421-2.550713-11.626796-7.65214-48.513083 2.847884-66.962419s45.108005-32.626844 56.450012-36.031922 21.049577-14.462297 22.981185-26.101475c0.284788-1.41156 5.113809-30.076131 5.113809-51.348586s-4.829021-50.221814-5.113809-51.348585c-2.018283-11.639178-11.614414-22.708779-23.018331-26.101475z m-10.487642 122.050399c-8.518888 2.835502-57.031971 19.291318-75.530835 51.348585-18.164547 31.202902-9.373253 79.158791-7.094945 90.228392l-77.747231 45.108005c-8.506505-7.664522-45.677582-39.152213-81.721887-39.152213s-73.190617 31.48769-81.721886 39.152213l-77.648174-45.157533c2.265925-11.069601 10.77243-59.02549-7.094946-90.513181-18.449335-32.057267-66.67763-48.513083-75.468923-51.348585-0.854365-4.544232-4.544232-28.094994-4.544233-44.575574s3.714631-39.72179 4.544233-44.575575c8.791294-2.835502 56.957678-19.3037 75.468923-51.360967 18.152164-31.202902 9.360871-79.158791 7.094946-90.21601l77.734849-44.835598c8.518888 7.664522 45.677582 39.152213 81.721886 39.152213s73.202999-31.48769 81.721886-39.152213l77.747231 45.120387c-2.278307 11.057219-10.784813 59.013108 7.094946 90.216009 18.436953 32.057267 66.665248 48.513083 75.530834 51.348586 0.841983 4.544232 4.53185 28.094994 4.53185 44.575574s-3.776542 39.758936-4.618524 44.637485z" fill="#33FFFF" p-id="5355"></path><path d="M526.821378 284.255961a118.311004 118.311004 0 1 0 118.026216 118.311004 118.422443 118.422443 0 0 0-118.026216-118.311004z m-0.284788 201.729239a83.418235 83.418235 0 1 1 83.405853-83.418235 83.554438 83.554438 0 0 1-83.430617 83.418235z" fill="#33FFFF" p-id="5356"></path><path d="M230.505248 949.707376m34.669891 0l522.958162 0q34.669891 0 34.669891 34.669891l0 4.952842q0 34.669891-34.669891 34.669891l-522.958162 0q-34.669891 0-34.669891-34.669891l0-4.952842q0-34.669891 34.669891-34.669891Z" fill="#33FFFF" p-id="5357"></path></svg>